<svg xmlns="http://www.w3.org/2000/svg" viewBox="0 0 24 24" role="img" aria-labelledby="title">
  <title>GitHub</title>
  <path fill="#9fb6dd" d="M12 2C6.48 2 2 6.59 2 12.25c0 4.53 2.87 8.37 6.85 9.73.5.1.68-.22.68-.49 0-.24-.01-1.04-.01-1.88-2.79.62-3.38-1.21-3.38-1.21-.46-1.19-1.12-1.5-1.12-1.5-.91-.64.07-.63.07-.63 1 .07 1.54 1.06 1.54 1.06.9 1.58 2.36 1.13 2.94.86.09-.67.35-1.13.63-1.39-2.23-.26-4.57-1.15-4.57-5.12 0-1.13.39-2.05 1.03-2.78-.1-.27-.45-1.33.1-2.77 0 0 .84-.28 2.75 1.06A9.31 9.31 0 0 1 12 7.2c.85 0 1.72.12 2.53.36 1.91-1.34 2.75-1.06 2.75-1.06.55 1.44.2 2.5.1 2.77.64.73 1.03 1.65 1.03 2.78 0 3.98-2.34 4.86-4.58 5.11.36.32.68.95.68 1.92 0 1.38-.01 2.49-.01 2.83 0 .27.18.6.69.49A10.25 10.25 0 0 0 22 12.25C22 6.59 17.52 2 12 2Z"/>
</svg>
